<svg xmlns="http://www.w3.org/2000/svg" viewBox="0 0 120 120" role="img" aria-label="Three fingers hand sign">
  <defs>
    <linearGradient id="skin" x1="0" y1="0" x2="0" y2="1">
      <stop offset="0" stop-color="#ffd95a"/>
      <stop offset="1" stop-color="#f3b93f"/>
    </linearGradient>
  </defs>
  <g fill="url(#skin)" stroke="#8e5f1e" stroke-width="3" stroke-linecap="round" stroke-linejoin="round">
    <rect x="28" y="14" width="16" height="60" rx="8"/>
    <rect x="50" y="8" width="16" height="66" rx="8"/>
    <rect x="72" y="14" width="16" height="60" rx="8"/>
    <path d="M20 62c0-10 8-18 18-18h32c10 0 18 8 18 18v28c0 11-9 20-20 20H40c-11 0-20-9-20-20Z"/>
    <path d="M18 70c-6 2-10 8-10 14 0 9 7 16 16 16h14"/>
  </g>
</svg>
